999
FreeCAD v0.21 33771 (Git)
  0
SECTION
  2
HEADER
  9
$ACADVER
  1
AC1014
  9
$ACADMAINTVER
 70
     9
  9
$DWGCODEPAGE
  3
ANSI_1252
  9
$TEXTSTYLE
  7
STANDARD
  9
$DIMSTYLE
  2
STANDARD
  9
$DIMTXSTY
  7
STANDARD
  9
$CMLSTYLE
  2
STANDARD
  9
$LUNITS
 70
2
  9
$INSUNITS
 70
4
  9
$PEXTMAX
 10
50
 20
50
 30
50
  9
$PEXTMIN
 10
0
 20
0
 30
0
  9
$HANDSEED
  5
FFFF
  0
ENDSEC
  0
SECTION
  2
CLASSES
  0
CLASS
  1
ACDBDICTIONARYWDFLT
  2
AcDbDictionaryWithDefault
  3
ObjectDBX Classes
 90
        0
280
     0
281
     0
  0
CLASS
  1
XRECORD
  2
AcDbXrecord
  3
ObjectDBX Classes
 90
        0
280
     0
281
     0
  0
CLASS
  1
LWPOLYLINE
  2
AcDbPolyline
  3
ObjectDBX Classes
 90
        0
280
     0
281
     1
  0
ENDSEC
  0
SECTION
  2
TABLES
  0
TABLE
  2
VPORT
  5
20
330
0
100
AcDbSymbolTable
 70
     1
  0
VPORT
  5
21
330
20
100
AcDbSymbolTableRecord
100
AcDbViewportTableRecord
  2
*ACTIVE
 70
     0
  0
ENDTAB
  0
TABLE
  2
LTYPE
  5
22
330
0
100
AcDbSymbolTable
 70
     1
  0
LTYPE
  5
23
330
21
100
AcDbSymbolTableRecord
100
AcDbLinetypeTableRecord
  2
BYBLOCK
 70
     0
  3

 72
    65
 73
     0
 40
0.0
  0
LTYPE
  5
24
330
21
100
AcDbSymbolTableRecord
100
AcDbLinetypeTableRecord
  2
BYLAYER
 70
     0
  3

 72
    65
 73
     0
 40
0.0
  0
LTYPE
  5
25
330
21
100
AcDbSymbolTableRecord
100
AcDbLinetypeTableRecord
  2
CONTINUOUS
 70
     0
  3
Solid line
 72
    65
 73
     0
 40
0.0
  0
ENDTAB
  0
TABLE
  2
LAYER
  5
A81
330
0
100
AcDbSymbolTable
 70
11
  0
LAYER
  5
A82
330
A81
100
AcDbSymbolTableRecord
100
AcDbLayerTableRecord
  2
0
 70
   0
 62
   7
  6
CONTINUOUS
  0
LAYER
  5
A83
330
A81
100
AcDbSymbolTableRecord
100
AcDbLayerTableRecord
  2
View002
 70
    0
 62
    7
  6
CONTINUOUS
  0
LAYER
  5
A84
330
A81
100
AcDbSymbolTableRecord
100
AcDbLayerTableRecord
  2
Dimension005
 70
    0
 62
    7
  6
CONTINUOUS
  0
LAYER
  5
A85
330
A81
100
AcDbSymbolTableRecord
100
AcDbLayerTableRecord
  2
Dimension006
 70
    0
 62
    7
  6
CONTINUOUS
  0
LAYER
  5
A86
330
A81
100
AcDbSymbolTableRecord
100
AcDbLayerTableRecord
  2
Dimension007
 70
    0
 62
    7
  6
CONTINUOUS
  0
LAYER
  5
A87
330
A81
100
AcDbSymbolTableRecord
100
AcDbLayerTableRecord
  2
Dimension008
 70
    0
 62
    7
  6
CONTINUOUS
  0
LAYER
  5
A88
330
A81
100
AcDbSymbolTableRecord
100
AcDbLayerTableRecord
  2
Dimension009
 70
    0
 62
    7
  6
CONTINUOUS
  0
LAYER
  5
A89
330
A81
100
AcDbSymbolTableRecord
100
AcDbLayerTableRecord
  2
Dimension010
 70
    0
 62
    7
  6
CONTINUOUS
  0
LAYER
  5
A8A
330
A81
100
AcDbSymbolTableRecord
100
AcDbLayerTableRecord
  2
Dimension011
 70
    0
 62
    7
  6
CONTINUOUS
  0
LAYER
  5
A8B
330
A81
100
AcDbSymbolTableRecord
100
AcDbLayerTableRecord
  2
Dimension012
 70
    0
 62
    7
  6
CONTINUOUS
  0
LAYER
  5
A8C
330
A81
100
AcDbSymbolTableRecord
100
AcDbLayerTableRecord
  2
Dimension013
 70
    0
 62
    7
  6
CONTINUOUS
  0
ENDTAB
  0
TABLE
  2
STYLE
  5
70
330
0
100
AcDbSymbolTable
 70
     2
  0
STYLE
  5
71
330
70
100
AcDbSymbolTableRecord
100
AcDbTextStyleTableRecord
  2
STANDARD
 70
     0
 40
0.0
 41
1.0
 50
0.0
 71
     0
 42
2.5
  3
arial.ttf
  4

  0
STYLE
  5
72
330
70
100
AcDbSymbolTableRecord
100
AcDbTextStyleTableRecord
  2
ANNOTATIVE
 70
     0
 40
0.0
 41
1.0
 50
0.0
 71
     0
 42
2.5
  3
arial.ttf
  4

  0
ENDTAB
  0
TABLE
  2
VIEW
  5
73
330
0
100
AcDbSymbolTable
 70
     0
  0
ENDTAB
  0
TABLE
  2
UCS
  5
74
330
0
100
AcDbSymbolTable
 70
     0
  0
ENDTAB
  0
TABLE
  2
APPID
  5
75
330
0
100
AcDbSymbolTable
 70
     2
  0
APPID
  5
76
330
75
100
AcDbSymbolTableRecord
100
AcDbRegAppTableRecord
  2
ACAD
 70
     0
  0
APPID
  5
77
330
75
100
AcDbSymbolTableRecord
100
AcDbRegAppTableRecord
  2
ACADANNOTATIVE
 70
     0
  0
ENDTAB
  0
TABLE
  2
DIMSTYLE
  5
78
330
0
100
AcDbSymbolTable
 70
     2
  0
DIMSTYLE
105
79
330
78
100
AcDbSymbolTableRecord
100
AcDbDimStyleTableRecord
  2
STANDARD
 70
     0
  3

  4

  5

  6

  7

 40
0.0
 41
2.5
 42
0.625
 43
3.75
 44
1.25
 45
0.0
 46
0.0
 47
0.0
 48
0.0
140
2.5
141
2.5
142
0.0
143
0.03937007874016
144
1.0
145
0.0
146
1.0
147
0.625
 71
     0
 72
     0
 73
     0
 74
     0
 75
     0
 76
     0
 77
     1
 78
     8
170
     0
171
     3
172
     1
173
     0
174
     0
175
     0
176
     0
177
     0
178
     0
270
     2
271
     2
272
     2
273
     2
274
     3
340
71
275
     0
280
     0
281
     0
282
     0
283
     0
284
     8
285
     0
286
     0
287
     3
288
     0
  0
ENDTAB
  0
TABLE
  2
BLOCK_RECORD
  5
A01
330
0
100
AcDbSymbolTable
  70
5
  0
BLOCK_RECORD
  5
A02
330
A01
100
AcDbSymbolTableRecord
100
AcDbBlockTableRecord
  2
*MODEL_SPACE
  0
BLOCK_RECORD
  5
A03
330
A01
100
AcDbSymbolTableRecord
100
AcDbBlockTableRecord
  2
*PAPER_SPACE
  0
BLOCK_RECORD
  5
A2E
330
A01
100
AcDbSymbolTableRecord
100
AcDbBlockTableRecord
  2
*Dimension005
  0
BLOCK_RECORD
  5
A36
330
A01
100
AcDbSymbolTableRecord
100
AcDbBlockTableRecord
  2
*Dimension006
  0
BLOCK_RECORD
  5
A3E
330
A01
100
AcDbSymbolTableRecord
100
AcDbBlockTableRecord
  2
*Dimension007
  0
BLOCK_RECORD
  5
A48
330
A01
100
AcDbSymbolTableRecord
100
AcDbBlockTableRecord
  2
*Dimension008
  0
BLOCK_RECORD
  5
A52
330
A01
100
AcDbSymbolTableRecord
100
AcDbBlockTableRecord
  2
*Dimension009
  0
BLOCK_RECORD
  5
A5C
330
A01
100
AcDbSymbolTableRecord
100
AcDbBlockTableRecord
  2
*Dimension010
  0
BLOCK_RECORD
  5
A66
330
A01
100
AcDbSymbolTableRecord
100
AcDbBlockTableRecord
  2
*Dimension011
  0
BLOCK_RECORD
  5
A70
330
A01
100
AcDbSymbolTableRecord
100
AcDbBlockTableRecord
  2
*Dimension012
  0
BLOCK_RECORD
  5
A7A
330
A01
100
AcDbSymbolTableRecord
100
AcDbBlockTableRecord
  2
*Dimension013
  0
ENDTAB
  0
ENDSEC
  0
SECTION
  2
BLOCKS
  0
BLOCK
  5
A04
330
A02
100
AcDbEntity
  8
0
100
AcDbBlockBegin
  2
*MODEL_SPACE
 70
   0
 10
0
 20
0
 30
0
  3
*MODEL_SPACE
  1
 
  0
ENDBLK
  5
A05
330
A02
100
AcDbEntity
  8
0
100
AcDbBlockEnd
  0
BLOCK
  5
A06
330
A03
100
AcDbEntity
 67
1
  8
0
100
AcDbBlockBegin
  2
*PAPER_SPACE
 70
   0
 10
0
 20
0
 30
0
  3
*PAPER_SPACE
  1
 
  0
ENDBLK
  5
A07
330
A03
100
AcDbEntity
 67
    1
  8
0
100
AcDbBlockEnd
  0
BLOCK
  5
A2F
330
A2E
100
AcDbEntity
  8
Dimension005
100
AcDbBlockBegin
  2
*Dimension005
 70
   1
 10
0
 20
0
 30
0
  3
*Dimension005
  1
 
  0
LINE
  5
A30
330
A2E
100
AcDbEntity
  8
Dimension005
100
AcDbLine
 10
161.607
 20
126.016
 30
0
 11
152.31
 21
116.228
 31
0
  0
TEXT
  5
A31
330
A2E
100
AcDbEntity
  8
Dimension005
100
AcDbText
 10
163.758
 20
137.086
 30
0
 40
3.5
  1
⌀13.5
  7
STANDARD
 72
1
 11
163.758
 21
137.086
 31
0
100
AcDbText
  0
SOLID
  5
A32
330
A2E
100
AcDbEntity
  8
0
 62
     0
100
AcDbTrace
 10
158.466
 20
122.104
 30
0
 11
157.862
 21
122.678
 31
0
 12
161.607
 22
126.016
 32
0
 13
161.607
 23
126.016
 33
0
  0
SOLID
  5
A33
330
A2E
100
AcDbEntity
  8
0
 62
     0
100
AcDbTrace
 10
156.055
 20
119.566
 30
0
 11
155.451
 21
120.14
 31
0
 12
152.31
 22
116.228
 32
0
 13
152.31
 23
116.228
 33
0
  0
ENDBLK
  5
A34
330
A2E
100
AcDbEntity
  8
Dimension005
100
AcDbBlockEnd
  0
BLOCK
  5
A37
330
A36
100
AcDbEntity
  8
Dimension006
100
AcDbBlockBegin
  2
*Dimension006
 70
   1
 10
0
 20
0
 30
0
  3
*Dimension006
  1
 
  0
LINE
  5
A38
330
A36
100
AcDbEntity
  8
Dimension006
100
AcDbLine
 10
128.856
 20
120.205
 30
0
 11
123.261
 21
118.039
 31
0
  0
TEXT
  5
A39
330
A36
100
AcDbEntity
  8
Dimension006
100
AcDbText
 10
133.171
 20
129.11
 30
0
 40
3.5
  1
⌀6
  7
STANDARD
 72
1
 11
133.171
 21
129.11
 31
0
100
AcDbText
  0
SOLID
  5
A3A
330
A36
100
AcDbEntity
  8
0
 62
     0
100
AcDbTrace
 10
124.344
 20
118.011
 30
0
 11
124.043
 21
118.788
 31
0
 12
128.856
 22
120.205
 32
0
 13
128.856
 23
120.205
 33
0
  0
SOLID
  5
A3B
330
A36
100
AcDbEntity
  8
0
 62
     0
100
AcDbTrace
 10
128.074
 20
119.456
 30
0
 11
127.773
 21
120.233
 31
0
 12
123.261
 22
118.039
 32
0
 13
123.261
 23
118.039
 33
0
  0
ENDBLK
  5
A3C
330
A36
100
AcDbEntity
  8
Dimension006
100
AcDbBlockEnd
  0
BLOCK
  5
A3F
330
A3E
100
AcDbEntity
  8
Dimension007
100
AcDbBlockBegin
  2
*Dimension007
 70
   1
 10
0
 20
0
 30
0
  3
*Dimension007
  1
 
  0
LINE
  5
A40
330
A3E
100
AcDbEntity
  8
Dimension007
100
AcDbLine
 10
95.5585
 20
121.622
 30
0
 11
95.5585
 21
128.903
 31
0
  0
LINE
  5
A41
330
A3E
100
AcDbEntity
  8
Dimension007
100
AcDbLine
 10
86.5585
 20
121.622
 30
0
 11
86.5585
 21
128.903
 31
0
  0
LINE
  5
A42
330
A3E
100
AcDbEntity
  8
Dimension007
100
AcDbLine
 10
86.5585
 20
128.903
 30
0
 11
95.5585
 21
128.903
 31
0
  0
TEXT
  5
A43
330
A3E
100
AcDbEntity
  8
Dimension007
100
AcDbText
 10
92.3223
 20
133.903
 30
0
 40
3.5
  1
9
  7
STANDARD
 72
1
 11
92.3223
 21
128.903
 31
0
100
AcDbText
  0
SOLID
  5
A44
330
A3E
100
AcDbEntity
  8
0
 62
     0
100
AcDbTrace
 10
81.5585
 20
129.32
 30
0
 11
81.5585
 21
128.486
 31
0
 12
86.5585
 22
128.903
 32
0
 13
86.5585
 23
128.903
 33
0
  0
SOLID
  5
A45
330
A3E
100
AcDbEntity
  8
0
 62
     0
100
AcDbTrace
 10
100.558
 20
129.32
 30
0
 11
100.558
 21
128.486
 31
0
 12
95.5585
 22
128.903
 32
0
 13
95.5585
 23
128.903
 33
0
  0
ENDBLK
  5
A46
330
A3E
100
AcDbEntity
  8
Dimension007
100
AcDbBlockEnd
  0
BLOCK
  5
A49
330
A48
100
AcDbEntity
  8
Dimension008
100
AcDbBlockBegin
  2
*Dimension008
 70
   1
 10
0
 20
0
 30
0
  3
*Dimension008
  1
 
  0
LINE
  5
A4A
330
A48
100
AcDbEntity
  8
Dimension008
100
AcDbLine
 10
95.5585
 20
116.622
 30
0
 11
85.6464
 21
116.622
 31
0
  0
LINE
  5
A4B
330
A48
100
AcDbEntity
  8
Dimension008
100
AcDbLine
 10
95.5585
 20
121.622
 30
0
 11
85.6464
 21
121.622
 31
0
  0
LINE
  5
A4C
330
A48
100
AcDbEntity
  8
Dimension008
100
AcDbLine
 10
85.6464
 20
121.622
 30
0
 11
85.6464
 21
116.622
 31
0
  0
TEXT
  5
A4D
330
A48
100
AcDbEntity
  8
Dimension008
100
AcDbText
 10
80.6464
 20
122.658
 30
0
 40
3.5
  1
5
  7
STANDARD
 72
1
 11
85.6464
 21
122.658
 31
0
100
AcDbText
  0
SOLID
  5
A4E
330
A48
100
AcDbEntity
  8
0
 62
     0
100
AcDbTrace
 10
85.2297
 20
126.622
 30
0
 11
86.0631
 21
126.622
 31
0
 12
85.6464
 22
121.622
 32
0
 13
85.6464
 23
121.622
 33
0
  0
SOLID
  5
A4F
330
A48
100
AcDbEntity
  8
0
 62
     0
100
AcDbTrace
 10
85.2297
 20
111.622
 30
0
 11
86.0631
 21
111.622
 31
0
 12
85.6464
 22
116.622
 32
0
 13
85.6464
 23
116.622
 33
0
  0
ENDBLK
  5
A50
330
A48
100
AcDbEntity
  8
Dimension008
100
AcDbBlockEnd
  0
BLOCK
  5
A53
330
A52
100
AcDbEntity
  8
Dimension009
100
AcDbBlockBegin
  2
*Dimension009
 70
   1
 10
0
 20
0
 30
0
  3
*Dimension009
  1
 
  0
LINE
  5
A54
330
A52
100
AcDbEntity
  8
Dimension009
100
AcDbLine
 10
79.7835
 20
142.897
 30
0
 11
59.9509
 21
142.897
 31
0
  0
LINE
  5
A55
330
A52
100
AcDbEntity
  8
Dimension009
100
AcDbLine
 10
79.7835
 20
110.347
 30
0
 11
59.9509
 21
110.347
 31
0
  0
LINE
  5
A56
330
A52
100
AcDbEntity
  8
Dimension009
100
AcDbLine
 10
59.9509
 20
110.347
 30
0
 11
59.9509
 21
142.897
 31
0
  0
TEXT
  5
A57
330
A52
100
AcDbEntity
  8
Dimension009
100
AcDbText
 10
64.9509
 20
129.203
 30
0
 40
3.5
  1
32.55
  7
STANDARD
 72
1
 11
59.9509
 21
129.203
 31
0
100
AcDbText
  0
SOLID
  5
A58
330
A52
100
AcDbEntity
  8
0
 62
     0
100
AcDbTrace
 10
59.5343
 20
105.347
 30
0
 11
60.3676
 21
105.347
 31
0
 12
59.9509
 22
110.347
 32
0
 13
59.9509
 23
110.347
 33
0
  0
SOLID
  5
A59
330
A52
100
AcDbEntity
  8
0
 62
     0
100
AcDbTrace
 10
59.5343
 20
147.897
 30
0
 11
60.3676
 21
147.897
 31
0
 12
59.9509
 22
142.897
 32
0
 13
59.9509
 23
142.897
 33
0
  0
ENDBLK
  5
A5A
330
A52
100
AcDbEntity
  8
Dimension009
100
AcDbBlockEnd
  0
BLOCK
  5
A5D
330
A5C
100
AcDbEntity
  8
Dimension010
100
AcDbBlockBegin
  2
*Dimension010
 70
   1
 10
0
 20
0
 30
0
  3
*Dimension010
  1
 
  0
LINE
  5
A5E
330
A5C
100
AcDbEntity
  8
Dimension010
100
AcDbLine
 10
167.658
 20
146.622
 30
0
 11
176.992
 21
146.622
 31
0
  0
LINE
  5
A5F
330
A5C
100
AcDbEntity
  8
Dimension010
100
AcDbLine
 10
167.658
 20
106.622
 30
0
 11
176.992
 21
106.622
 31
0
  0
LINE
  5
A60
330
A5C
100
AcDbEntity
  8
Dimension010
100
AcDbLine
 10
176.992
 20
106.622
 30
0
 11
176.992
 21
146.622
 31
0
  0
TEXT
  5
A61
330
A5C
100
AcDbEntity
  8
Dimension010
100
AcDbText
 10
181.992
 20
128.923
 30
0
 40
3.5
  1
40
  7
STANDARD
 72
1
 11
176.992
 21
128.923
 31
0
100
AcDbText
  0
SOLID
  5
A62
330
A5C
100
AcDbEntity
  8
0
 62
     0
100
AcDbTrace
 10
177.408
 20
101.622
 30
0
 11
176.575
 21
101.622
 31
0
 12
176.992
 22
106.622
 32
0
 13
176.992
 23
106.622
 33
0
  0
SOLID
  5
A63
330
A5C
100
AcDbEntity
  8
0
 62
     0
100
AcDbTrace
 10
177.408
 20
151.622
 30
0
 11
176.575
 21
151.622
 31
0
 12
176.992
 22
146.622
 32
0
 13
176.992
 23
146.622
 33
0
  0
ENDBLK
  5
A64
330
A5C
100
AcDbEntity
  8
Dimension010
100
AcDbBlockEnd
  0
BLOCK
  5
A67
330
A66
100
AcDbEntity
  8
Dimension011
100
AcDbBlockBegin
  2
*Dimension011
 70
   1
 10
0
 20
0
 30
0
  3
*Dimension011
  1
 
  0
LINE
  5
A68
330
A66
100
AcDbEntity
  8
Dimension011
100
AcDbLine
 10
172.958
 20
111.922
 30
0
 11
172.958
 21
88.4581
 31
0
  0
LINE
  5
A69
330
A66
100
AcDbEntity
  8
Dimension011
100
AcDbLine
 10
76.0585
 20
111.922
 30
0
 11
76.0585
 21
88.4581
 31
0
  0
LINE
  5
A6A
330
A66
100
AcDbEntity
  8
Dimension011
100
AcDbLine
 10
76.0585
 20
88.4581
 30
0
 11
172.958
 21
88.4581
 31
0
  0
TEXT
  5
A6B
330
A66
100
AcDbEntity
  8
Dimension011
100
AcDbText
 10
124.508
 20
93.4581
 30
0
 40
3.5
  1
96.9
  7
STANDARD
 72
1
 11
124.508
 21
88.4581
 31
0
100
AcDbText
  0
SOLID
  5
A6C
330
A66
100
AcDbEntity
  8
0
 62
     0
100
AcDbTrace
 10
71.0585
 20
88.0414
 30
0
 11
71.0585
 21
88.8748
 31
0
 12
76.0585
 22
88.4581
 32
0
 13
76.0585
 23
88.4581
 33
0
  0
SOLID
  5
A6D
330
A66
100
AcDbEntity
  8
0
 62
     0
100
AcDbTrace
 10
177.958
 20
88.0414
 30
0
 11
177.958
 21
88.8748
 31
0
 12
172.958
 22
88.4581
 32
0
 13
172.958
 23
88.4581
 33
0
  0
ENDBLK
  5
A6E
330
A66
100
AcDbEntity
  8
Dimension011
100
AcDbBlockEnd
  0
BLOCK
  5
A71
330
A70
100
AcDbEntity
  8
Dimension012
100
AcDbBlockBegin
  2
*Dimension012
 70
   1
 10
0
 20
0
 30
0
  3
*Dimension012
  1
 
  0
LINE
  5
A72
330
A70
100
AcDbEntity
  8
Dimension012
100
AcDbLine
 10
169.233
 20
142.897
 30
0
 11
169.233
 21
158.585
 31
0
  0
LINE
  5
A73
330
A70
100
AcDbEntity
  8
Dimension012
100
AcDbLine
 10
79.7835
 20
142.897
 30
0
 11
79.7835
 21
158.585
 31
0
  0
LINE
  5
A74
330
A70
100
AcDbEntity
  8
Dimension012
100
AcDbLine
 10
79.7835
 20
158.585
 30
0
 11
169.233
 21
158.585
 31
0
  0
TEXT
  5
A75
330
A70
100
AcDbEntity
  8
Dimension012
100
AcDbText
 10
124.243
 20
163.585
 30
0
 40
3.5
  1
89.45
  7
STANDARD
 72
1
 11
124.243
 21
158.585
 31
0
100
AcDbText
  0
SOLID
  5
A76
330
A70
100
AcDbEntity
  8
0
 62
     0
100
AcDbTrace
 10
74.7835
 20
159.002
 30
0
 11
74.7835
 21
158.169
 31
0
 12
79.7835
 22
158.585
 32
0
 13
79.7835
 23
158.585
 33
0
  0
SOLID
  5
A77
330
A70
100
AcDbEntity
  8
0
 62
     0
100
AcDbTrace
 10
174.233
 20
159.002
 30
0
 11
174.233
 21
158.169
 31
0
 12
169.233
 22
158.585
 32
0
 13
169.233
 23
158.585
 33
0
  0
ENDBLK
  5
A78
330
A70
100
AcDbEntity
  8
Dimension012
100
AcDbBlockEnd
  0
BLOCK
  5
A7B
330
A7A
100
AcDbEntity
  8
Dimension013
100
AcDbBlockBegin
  2
*Dimension013
 70
   1
 10
0
 20
0
 30
0
  3
*Dimension013
  1
 
  0
LINE
  5
A7C
330
A7A
100
AcDbEntity
  8
Dimension013
100
AcDbLine
 10
78.3083
 20
143.971
 30
0
 11
81.2586
 21
141.823
 31
0
  0
TEXT
  5
A7D
330
A7A
100
AcDbEntity
  8
Dimension013
100
AcDbText
 10
68.203
 20
159.061
 30
0
 40
3.5
  1
⌀3.65
  7
STANDARD
 72
1
 11
68.203
 21
159.061
 31
0
100
AcDbText
  0
SOLID
  5
A7E
330
A7A
100
AcDbEntity
  8
0
 62
     0
100
AcDbTrace
 10
82.5952
 20
141.365
 30
0
 11
82.1045
 21
140.691
 31
0
 12
78.3083
 22
143.971
 32
0
 13
78.3083
 23
143.971
 33
0
  0
SOLID
  5
A7F
330
A7A
100
AcDbEntity
  8
0
 62
     0
100
AcDbTrace
 10
77.4624
 20
145.103
 30
0
 11
76.9718
 21
144.429
 31
0
 12
81.2586
 22
141.823
 32
0
 13
81.2586
 23
141.823
 33
0
  0
ENDBLK
  5
A80
330
A7A
100
AcDbEntity
  8
Dimension013
100
AcDbBlockEnd
  0
ENDSEC
  0
SECTION
  2
ENTITIES
  0
LINE
  5
A08
330
A02
100
AcDbEntity
  8
View002
100
AcDbLine
 10
76.0585
 20
135.822
 30
0
 11
76.0585
 21
141.322
 31
0
  0
ARC
  5
A09
330
A02
100
AcDbEntity
  8
View002
100
AcDbCircle
 10
81.3585
 20
141.322
 30
0
 40
5.3
100
AcDbArc
 50
90
 51
180
  0
LINE
  5
A0A
330
A02
100
AcDbEntity
  8
View002
100
AcDbLine
 10
81.3585
 20
146.622
 30
0
 11
167.658
 21
146.622
 31
0
  0
ARC
  5
A0B
330
A02
100
AcDbEntity
  8
View002
100
AcDbCircle
 10
167.658
 20
141.322
 30
0
 40
5.3
100
AcDbArc
 50
0
 51
90
  0
LINE
  5
A0C
330
A02
100
AcDbEntity
  8
View002
100
AcDbLine
 10
172.958
 20
141.322
 30
0
 11
172.958
 21
135.822
 31
0
  0
LINE
  5
A0D
330
A02
100
AcDbEntity
  8
View002
100
AcDbLine
 10
172.958
 20
135.822
 30
0
 11
171.558
 21
135.822
 31
0
  0
ARC
  5
A0E
330
A02
100
AcDbEntity
  8
View002
100
AcDbCircle
 10
171.558
 20
135.722
 30
0
 40
0.1
100
AcDbArc
 50
90
 51
180
  0
LINE
  5
A0F
330
A02
100
AcDbEntity
  8
View002
100
AcDbLine
 10
171.458
 20
135.722
 30
0
 11
171.458
 21
116.522
 31
0
  0
ARC
  5
A10
330
A02
100
AcDbEntity
  8
View002
100
AcDbCircle
 10
171.558
 20
116.522
 30
0
 40
0.1
100
AcDbArc
 50
180
 51
-90
  0
LINE
  5
A11
330
A02
100
AcDbEntity
  8
View002
100
AcDbLine
 10
171.558
 20
116.422
 30
0
 11
172.958
 21
116.422
 31
0
  0
LINE
  5
A12
330
A02
100
AcDbEntity
  8
View002
100
AcDbLine
 10
172.958
 20
116.422
 30
0
 11
172.958
 21
111.922
 31
0
  0
ARC
  5
A13
330
A02
100
AcDbEntity
  8
View002
100
AcDbCircle
 10
167.658
 20
111.922
 30
0
 40
5.3
100
AcDbArc
 50
-90
 51
0
  0
LINE
  5
A14
330
A02
100
AcDbEntity
  8
View002
100
AcDbLine
 10
167.658
 20
106.622
 30
0
 11
81.3585
 21
106.622
 31
0
  0
ARC
  5
A15
330
A02
100
AcDbEntity
  8
View002
100
AcDbCircle
 10
81.3585
 20
111.922
 30
0
 40
5.3
100
AcDbArc
 50
180
 51
-90
  0
LINE
  5
A16
330
A02
100
AcDbEntity
  8
View002
100
AcDbLine
 10
76.0585
 20
111.922
 30
0
 11
76.0585
 21
116.422
 31
0
  0
LINE
  5
A17
330
A02
100
AcDbEntity
  8
View002
100
AcDbLine
 10
76.0585
 20
116.422
 30
0
 11
77.4585
 21
116.422
 31
0
  0
ARC
  5
A18
330
A02
100
AcDbEntity
  8
View002
100
AcDbCircle
 10
77.4585
 20
116.522
 30
0
 40
0.1
100
AcDbArc
 50
-90
 51
0
  0
LINE
  5
A19
330
A02
100
AcDbEntity
  8
View002
100
AcDbLine
 10
77.5585
 20
116.522
 30
0
 11
77.5585
 21
135.722
 31
0
  0
ARC
  5
A1A
330
A02
100
AcDbEntity
  8
View002
100
AcDbCircle
 10
77.4585
 20
135.722
 30
0
 40
0.1
100
AcDbArc
 50
0
 51
90
  0
LINE
  5
A1B
330
A02
100
AcDbEntity
  8
View002
100
AcDbLine
 10
76.0585
 20
135.822
 30
0
 11
77.4585
 21
135.822
 31
0
  0
CIRCLE
  5
A1C
330
A02
100
AcDbEntity
  8
View002
100
AcDbCircle
 10
156.958
 20
121.122
 40
6.75
  0
ARC
  5
A1D
330
A02
100
AcDbEntity
  8
View002
100
AcDbCircle
 10
139.058
 20
116.122
 30
0
 40
2
100
AcDbArc
 50
90
 51
-90
  0
LINE
  5
A1E
330
A02
100
AcDbEntity
  8
View002
100
AcDbLine
 10
139.058
 20
114.122
 30
0
 11
145.058
 21
114.122
 31
0
  0
ARC
  5
A1F
330
A02
100
AcDbEntity
  8
View002
100
AcDbCircle
 10
145.058
 20
116.122
 30
0
 40
2
100
AcDbArc
 50
-90
 51
90
  0
LINE
  5
A20
330
A02
100
AcDbEntity
  8
View002
100
AcDbLine
 10
145.058
 20
118.122
 30
0
 11
139.058
 21
118.122
 31
0
  0
LINE
  5
A21
330
A02
100
AcDbEntity
  8
View002
100
AcDbLine
 10
86.5585
 20
121.622
 30
0
 11
95.5585
 21
121.622
 31
0
  0
LINE
  5
A22
330
A02
100
AcDbEntity
  8
View002
100
AcDbLine
 10
95.5585
 20
121.622
 30
0
 11
95.5585
 21
116.622
 31
0
  0
LINE
  5
A23
330
A02
100
AcDbEntity
  8
View002
100
AcDbLine
 10
95.5585
 20
116.622
 30
0
 11
86.5585
 21
116.622
 31
0
  0
LINE
  5
A24
330
A02
100
AcDbEntity
  8
View002
100
AcDbLine
 10
86.5585
 20
116.622
 30
0
 11
86.5585
 21
121.622
 31
0
  0
CIRCLE
  5
A25
330
A02
100
AcDbEntity
  8
View002
100
AcDbCircle
 10
126.058
 20
119.122
 40
3
  0
CIRCLE
  5
A26
330
A02
100
AcDbEntity
  8
View002
100
AcDbCircle
 10
116.058
 20
119.122
 40
3
  0
CIRCLE
  5
A27
330
A02
100
AcDbEntity
  8
View002
100
AcDbCircle
 10
106.058
 20
119.122
 40
3
  0
CIRCLE
  5
A28
330
A02
100
AcDbEntity
  8
View002
100
AcDbCircle
 10
169.233
 20
142.897
 40
1.825
  0
CIRCLE
  5
A29
330
A02
100
AcDbEntity
  8
View002
100
AcDbCircle
 10
169.233
 20
110.347
 40
1.825
  0
CIRCLE
  5
A2A
330
A02
100
AcDbEntity
  8
View002
100
AcDbCircle
 10
79.7835
 20
142.897
 40
1.825
  0
CIRCLE
  5
A2B
330
A02
100
AcDbEntity
  8
View002
100
AcDbCircle
 10
79.7835
 20
110.347
 40
1.825
  0
CIRCLE
  5
A2C
330
A02
100
AcDbEntity
  8
View002
100
AcDbCircle
 10
134.058
 20
115.122
 40
1.75
  0
DIMENSION
  5
A2D
330
A02
100
AcDbEntity
  8
Dimension005
100
AcDbDimension
  2
*Dimension005
 10
161.607
 20
126.016
 30
0
 11
163.758
 21
137.086
 31
0
 70
3
  1
⌀13.5
  3
STANDARD
100
AcDbDiametricDimension
 15
152.31
 25
116.228
 35
0
 40
0
  0
DIMENSION
  5
A35
330
A02
100
AcDbEntity
  8
Dimension006
100
AcDbDimension
  2
*Dimension006
 10
128.856
 20
120.205
 30
0
 11
133.171
 21
129.11
 31
0
 70
3
  1
⌀6
  3
STANDARD
100
AcDbDiametricDimension
 15
123.261
 25
118.039
 35
0
 40
0
  0
DIMENSION
  5
A3D
330
A02
100
AcDbEntity
  8
Dimension007
100
AcDbDimension
  2
*Dimension007
 10
92.3223
 20
128.903
 30
0
 11
92.3223
 21
133.903
 31
0
 70
32
  1
9
  3
STANDARD
100
AcDbAlignedDimension
 13
86.5585
 23
121.622
 33
0
 14
95.5585
 24
121.622
 34
0
100
AcDbRotatedDimension
  0
DIMENSION
  5
A47
330
A02
100
AcDbEntity
  8
Dimension008
100
AcDbDimension
  2
*Dimension008
 10
85.6464
 20
122.658
 30
0
 11
80.6464
 21
122.658
 31
0
 70
32
  1
5
  3
STANDARD
100
AcDbAlignedDimension
 13
95.5585
 23
121.622
 33
0
 14
95.5585
 24
116.622
 34
0
 50
90
100
AcDbRotatedDimension
  0
DIMENSION
  5
A51
330
A02
100
AcDbEntity
  8
Dimension009
100
AcDbDimension
  2
*Dimension009
 10
59.9509
 20
129.203
 30
0
 11
64.9509
 21
129.203
 31
0
 70
32
  1
32.55
  3
STANDARD
100
AcDbAlignedDimension
 13
79.7835
 23
110.347
 33
0
 14
79.7835
 24
142.897
 34
0
 50
90
100
AcDbRotatedDimension
  0
DIMENSION
  5
A5B
330
A02
100
AcDbEntity
  8
Dimension010
100
AcDbDimension
  2
*Dimension010
 10
176.992
 20
128.923
 30
0
 11
181.992
 21
128.923
 31
0
 70
32
  1
40
  3
STANDARD
100
AcDbAlignedDimension
 13
167.658
 23
106.622
 33
0
 14
167.658
 24
146.622
 34
0
 50
90
100
AcDbRotatedDimension
  0
DIMENSION
  5
A65
330
A02
100
AcDbEntity
  8
Dimension011
100
AcDbDimension
  2
*Dimension011
 10
124.508
 20
88.4581
 30
0
 11
124.508
 21
93.4581
 31
0
 70
32
  1
96.9
  3
STANDARD
100
AcDbAlignedDimension
 13
76.0585
 23
111.922
 33
0
 14
172.958
 24
111.922
 34
0
100
AcDbRotatedDimension
  0
DIMENSION
  5
A6F
330
A02
100
AcDbEntity
  8
Dimension012
100
AcDbDimension
  2
*Dimension012
 10
124.243
 20
158.585
 30
0
 11
124.243
 21
163.585
 31
0
 70
32
  1
89.45
  3
STANDARD
100
AcDbAlignedDimension
 13
79.7835
 23
142.897
 33
0
 14
169.233
 24
142.897
 34
0
100
AcDbRotatedDimension
  0
DIMENSION
  5
A79
330
A02
100
AcDbEntity
  8
Dimension013
100
AcDbDimension
  2
*Dimension013
 10
78.3083
 20
143.971
 30
0
 11
68.203
 21
159.061
 31
0
 70
3
  1
⌀3.65
  3
STANDARD
100
AcDbDiametricDimension
 15
81.2586
 25
141.823
 35
0
 40
0
  0
ENDSEC
  0
SECTION
  2
OBJECTS
  0
DICTIONARY
  5
F000
330
0
100
AcDbDictionary
  3
ACAD_GROUP
350
F001
  0
DICTIONARY
  5
F001
330
F000
100
AcDbDictionary
  0
ENDSEC
  0
EOF